<svg xmlns="http://www.w3.org/2000/svg" width="128" height="128" viewBox="0 0 128 128">
  <defs>
    <linearGradient id="leaf" x1="0" y1="0" x2="1" y2="1">
      <stop offset="0" stop-color="#2dd466"/>
      <stop offset="1" stop-color="#0f9d58"/>
    </linearGradient>
  </defs>
  <rect width="128" height="128" rx="24" fill="#0b1f16"/>
  <circle cx="64" cy="64" r="46" fill="#0f2b1d"/>
  <path d="M64 22c24 18 38 40 38 65 0 26-17 47-38 53-21-6-38-27-38-53 0-25 14-47 38-65z" fill="url(#leaf)"/>
  <path d="M64 34c-7 18-10 33-10 49 0 16 4 30 10 42 6-12 10-26 10-42 0-16-3-31-10-49z" fill="#0b1f16"/>
  <circle cx="64" cy="56" r="6" fill="#d1fae5"/>
  <path d="M64 56c10 6 18 16 22 28" stroke="#d1fae5" stroke-width="3" stroke-linecap="round"/>
</svg>
