<svg xmlns="http://www.w3.org/2000/svg" viewBox="0 0 48 48" width="48" height="48" fill="none" stroke="#0B5E42" stroke-width="1.75" stroke-linecap="round" stroke-linejoin="round">
  <!-- Outer Network Lattice -->
  <polygon points="24,6 38,14 38,30 24,38 10,30 10,14" stroke="#B2D3C7"/>
  <line x1="24" y1="6" x2="24" y2="16" stroke="#B2D3C7"/>
  <line x1="38" y1="14" x2="30" y2="20" stroke="#B2D3C7"/>
  <line x1="38" y1="30" x2="30" y2="28" stroke="#B2D3C7"/>
  <line x1="24" y1="38" x2="24" y2="32" stroke="#B2D3C7"/>
  <line x1="10" y1="30" x2="18" y2="28" stroke="#B2D3C7"/>
  <line x1="10" y1="14" x2="18" y2="20" stroke="#B2D3C7"/>
  <!-- Partner Nodes -->
  <circle cx="24" cy="6" r="2.5" fill="#0B5E42"/>
  <circle cx="38" cy="14" r="2.5" fill="#0B5E42"/>
  <circle cx="38" cy="30" r="2.5" fill="#0B5E42"/>
  <circle cx="24" cy="38" r="2.5" fill="#0B5E42"/>
  <circle cx="10" cy="30" r="2.5" fill="#0B5E42"/>
  <circle cx="10" cy="14" r="2.5" fill="#0B5E42"/>
  <!-- Central Hub Badge -->
  <polygon points="24,16 31,20 31,28 24,32 17,28 17,20" fill="#FFFFFF" stroke="#0B5E42" stroke-width="2"/>
  <text x="24" y="27" font-family="Arial, sans-serif" font-size="11" font-weight="bold" fill="#0B5E42" text-anchor="middle" stroke="none">1</text>
</svg>
