<svg xmlns="http://www.w3.org/2000/svg" width="192" height="192" viewBox="0 0 192 192">
  <defs>
    <linearGradient id="g" x1="0" y1="0" x2="1" y2="1">
      <stop offset="0%" stop-color="#22c55e"/>
      <stop offset="100%" stop-color="#0ea05c"/>
    </linearGradient>
  </defs>
  <rect width="192" height="192" rx="36" fill="#0b1f16"/>
  <circle cx="96" cy="96" r="62" fill="url(#g)"/>
  <path d="M96 44c22 18 34 36 34 58 0 23-16 42-34 46-18-4-34-23-34-46 0-22 12-40 34-58z" fill="#d1fae5"/>
  <path d="M96 60c-6 16-8 30-8 44 0 14 3 26 8 36 5-10 8-22 8-36 0-14-2-28-8-44z" fill="#0b1f16"/>
</svg>
