<svg xmlns="http://www.w3.org/2000/svg" width="192" height="192" viewBox="0 0 192 192">
  <rect width="192" height="192" rx="36" fill="#0b1f16"/>
  <circle cx="96" cy="96" r="68" fill="#0f2b1d"/>
  <path d="M96 26c28 20 44 44 44 72 0 30-20 54-44 60-24-6-44-30-44-60 0-28 16-52 44-72z" fill="#2dd466"/>
  <path d="M96 46c-8 20-12 38-12 56 0 19 4 35 12 49 8-14 12-30 12-49 0-18-4-36-12-56z" fill="#0b1f16"/>
  <circle cx="96" cy="76" r="7" fill="#d1fae5"/>
  <path d="M96 76c12 8 22 20 28 36" stroke="#d1fae5" stroke-width="4" stroke-linecap="round"/>
</svg>
