<svg xmlns="http://www.w3.org/2000/svg" width="512" height="512" viewBox="0 0 512 512">
  <rect width="512" height="512" rx="96" fill="#0b1f16"/>
  <circle cx="256" cy="256" r="184" fill="#0f2b1d"/>
  <path d="M256 72c74 52 116 114 116 186 0 78-52 142-116 156-64-14-116-78-116-156 0-72 42-134 116-186z" fill="#2dd466"/>
  <path d="M256 112c-22 56-32 104-32 154 0 50 10 92 32 128 22-36 32-78 32-128 0-50-10-98-32-154z" fill="#0b1f16"/>
  <circle cx="256" cy="168" r="18" fill="#d1fae5"/>
  <path d="M256 168c30 20 54 50 70 90" stroke="#d1fae5" stroke-width="10" stroke-linecap="round"/>
</svg>
